0
SECTION
2
HEADER
9
$INSUNITS
70
4
9
$ACADVER
1
AC1014
9
$HANDSEED
5
FFFF
0
ENDSEC
0
SECTION
2
TABLES
0
TABLE
2
VPORT
5
8
100
AcDbSymbolTable
0
ENDTAB
0
TABLE
2
LTYPE
5
5
100
AcDbSymbolTable
0
LTYPE
5
14
100
AcDbSymbolTableRecord
100
AcDbLinetypeTableRecord
2
BYBLOCK
70
0
0
LTYPE
5
15
100
AcDbSymbolTableRecord
100
AcDbLinetypeTableRecord
2
BYLAYER
70
0
0
ENDTAB
0
TABLE
2
LAYER
5
2
100
AcDbSymbolTable
70
2
0
LAYER
5
50
100
AcDbSymbolTableRecord
100
AcDbLayerTableRecord
2
0
70
0
6
CONTINUOUS
0
ENDTAB
0
TABLE
2
STYLE
5
3
100
AcDbSymbolTable
70
1
0
STYLE
5
11
100
AcDbSymbolTableRecord
100
AcDbTextStyleTableRecord
2
STANDARD
70
0
0
ENDTAB
0
TABLE
2
VIEW
5
6
100
AcDbSymbolTable
70
0
0
ENDTAB
0
TABLE
2
UCS
5
7
100
AcDbSymbolTable
70
0
0
ENDTAB
0
TABLE
2
APPID
5
9
100
AcDbSymbolTable
70
2
0
APPID
5
12
100
AcDbSymbolTableRecord
100
AcDbRegAppTableRecord
2
ACAD
70
0
0
ENDTAB
0
TABLE
2
DIMSTYLE
5
A
100
AcDbSymbolTable
70
1
0
ENDTAB
0
TABLE
2
BLOCK_RECORD
5
1
100
AcDbSymbolTable
70
1
0
BLOCK_RECORD
5
1F
100
AcDbSymbolTableRecord
100
AcDbBlockTableRecord
2
*MODEL_SPACE
0
BLOCK_RECORD
5
1B
100
AcDbSymbolTableRecord
100
AcDbBlockTableRecord
2
*PAPER_SPACE
0
ENDTAB
0
ENDSEC
0
SECTION
2
BLOCKS
0
BLOCK
5
20
100
AcDbEntity
100
AcDbBlockBegin
2
*MODEL_SPACE
0
ENDBLK
5
21
100
AcDbEntity
100
AcDbBlockEnd
0
BLOCK
5
1C
100
AcDbEntity
100
AcDbBlockBegin
2
*PAPER_SPACE
0
ENDBLK
5
1D
100
AcDbEntity
100
AcDbBlockEnd
0
ENDSEC
0
SECTION
2
ENTITIES
0
CIRCLE
5
100
100
AcDbEntity
8
0
100
AcDbCircle
10
5.5500000000000025
20
-0.4271665123182094
30
0
40
3.2200000000000002
210
0
220
0
230
1
0
CIRCLE
5
101
100
AcDbEntity
8
0
100
AcDbCircle
10
-55.54999999999994
20
-0.4271665123180175
30
0
40
3.2200000000000002
210
0
220
0
230
1
0
SPLINE
5
102
100
AcDbEntity
8
0
100
AcDbSpline
70
4
71
5
72
26
73
20
74
0
42
0.000000001
43
0.0000000001
44
0.0000000001
40
-1
40
-1
40
-1
40
-1
40
-1
40
-1
40
-0.93333333333333324
40
-0.86666666666666659
40
-0.79999999999999993
40
-0.73333333333333328
40
-0.66666666666666663
40
-0.59999999999999998
40
-0.53333333333333333
40
-0.46666666666666662
40
-0.39999999999999997
40
-0.33333333333333331
40
-0.26666666666666666
40
-0.20000000000000001
40
-0.13333333333333333
40
-0.066666666666666666
40
0
40
0
40
0
40
0
40
0
40
0
41
1
41
1
41
1
41
1
41
1
41
1
41
1
41
1
41
1
41
1
41
1
41
1
41
1
41
1
41
1
41
1
41
1
41
1
41
1
41
1
10
13.857362993884959
20
-0.42716651231803571
30
0
10
13.868468638215033
20
-0.029563140323368153
30
0
10
13.867671106183634
20
0.76454911411748039
30
0
10
13.798063377314346
20
1.9512218815914029
30
0
10
13.518890804427633
20
3.5962326681432808
30
0
10
12.692983078659344
20
5.9179371437807209
30
0
10
11.23193968710671
20
8.5731072469019374
30
0
10
9.3326293492694372
20
10.87999744327464
30
0
10
7.1392454508947454
20
12.229243692323834
30
0
10
4.4177631372397173
20
12.838885953319911
30
0
10
1.1281118670180981
20
13.006173714746227
30
0
10
-2.6186436878939148
20
13.071064070777433
30
0
10
-5.6582586097892111
20
12.744562742446812
30
0
10
-7.7002893660510328
20
11.906169913315372
30
0
10
-9.4284979052699018
20
10.740135795723482
30
0
10
-11.941291241363787
20
9.5341124829778305
30
0
10
-15.584313505162559
20
8.80897933568985
30
0
10
-19.699335471550036
20
8.5248487827826516
30
0
10
-23.120202631662448
20
8.4679565141107798
30
0
10
-24.999999999999961
20
8.4726332566332268
30
0
0
SPLINE
5
103
100
AcDbEntity
8
0
100
AcDbSpline
70
4
71
5
72
26
73
20
74
0
42
0.000000001
43
0.0000000001
44
0.0000000001
40
0
40
0
40
0
40
0
40
0
40
0
40
0.066666666666666666
40
0.13333333333333333
40
0.20000000000000001
40
0.26666666666666666
40
0.33333333333333331
40
0.39999999999999997
40
0.46666666666666662
40
0.53333333333333333
40
0.59999999999999998
40
0.66666666666666663
40
0.73333333333333328
40
0.79999999999999993
40
0.86666666666666659
40
0.93333333333333324
40
1
40
1
40
1
40
1
40
1
40
1
41
1
41
1
41
1
41
1
41
1
41
1
41
1
41
1
41
1
41
1
41
1
41
1
41
1
41
1
41
1
41
1
41
1
41
1
41
1
41
1
10
-24.999999999999961
20
8.4726332566332268
30
0
10
-26.879797368337471
20
8.4679565141107798
30
0
10
-30.300664528449886
20
8.5248487827826516
30
0
10
-34.41568649483736
20
8.80897933568985
30
0
10
-38.058708758636129
20
9.5341124829778305
30
0
10
-40.571502094730015
20
10.740135795723482
30
0
10
-42.299710633948884
20
11.906169913315372
30
0
10
-44.341741390210707
20
12.744562742446812
30
0
10
-47.381356312106007
20
13.071064070777433
30
0
10
-51.128111867018021
20
13.006173714746227
30
0
10
-54.417763137239639
20
12.838885953319911
30
0
10
-57.139245450894663
20
12.229243692323834
30
0
10
-59.332629349269361
20
10.87999744327464
30
0
10
-61.231939687106625
20
8.5731072469019374
30
0
10
-62.692983078659267
20
5.9179371437807209
30
0
10
-63.518890804427556
20
3.5962326681432808
30
0
10
-63.798063377314271
20
1.9512218815914029
30
0
10
-63.86767110618355
20
0.76454911411748039
30
0
10
-63.868468638214956
20
-0.029563140323368153
30
0
10
-63.857362993884877
20
-0.42716651231803571
30
0
0
SPLINE
5
104
100
AcDbEntity
8
0
100
AcDbSpline
70
4
71
5
72
26
73
20
74
0
42
0.000000001
43
0.0000000001
44
0.0000000001
40
-1
40
-1
40
-1
40
-1
40
-1
40
-1
40
-0.93333333333333324
40
-0.86666666666666659
40
-0.79999999999999993
40
-0.73333333333333328
40
-0.66666666666666663
40
-0.59999999999999998
40
-0.53333333333333333
40
-0.46666666666666662
40
-0.39999999999999997
40
-0.33333333333333331
40
-0.26666666666666666
40
-0.20000000000000001
40
-0.13333333333333333
40
-0.066666666666666666
40
0
40
0
40
0
40
0
40
0
40
0
41
1
41
1
41
1
41
1
41
1
41
1
41
1
41
1
41
1
41
1
41
1
41
1
41
1
41
1
41
1
41
1
41
1
41
1
41
1
41
1
10
-63.857362993884877
20
-0.42716651231803648
30
0
10
-63.868468638214956
20
-0.82476988431270404
30
0
10
-63.86767110618355
20
-1.6188821387535526
30
0
10
-63.798063377314271
20
-2.8055549062274752
30
0
10
-63.518890804427556
20
-4.4505656927793531
30
0
10
-62.692983078659267
20
-6.7722701684167932
30
0
10
-61.231939687106625
20
-9.4274402715380088
30
0
10
-59.332629349269361
20
-11.734330467910713
30
0
10
-57.139245450894663
20
-13.083576716959906
30
0
10
-54.417763137239639
20
-13.693218977955983
30
0
10
-51.128111867018021
20
-13.860506739382298
30
0
10
-47.381356312106007
20
-13.925397095413505
30
0
10
-44.341741390210707
20
-13.598895767082883
30
0
10
-42.299710633948884
20
-12.760502937951443
30
0
10
-40.571502094730015
20
-11.594468820359554
30
0
10
-38.058708758636129
20
-10.388445507613902
30
0
10
-34.41568649483736
20
-9.6633123603259214
30
0
10
-30.300664528449886
20
-9.379181807418723
30
0
10
-26.879797368337471
20
-9.3222895387468512
30
0
10
-24.999999999999961
20
-9.3269662812692982
30
0
0
SPLINE
5
105
100
AcDbEntity
8
0
100
AcDbSpline
70
4
71
5
72
26
73
20
74
0
42
0.000000001
43
0.0000000001
44
0.0000000001
40
0
40
0
40
0
40
0
40
0
40
0
40
0.066666666666666666
40
0.13333333333333333
40
0.20000000000000001
40
0.26666666666666666
40
0.33333333333333331
40
0.39999999999999997
40
0.46666666666666662
40
0.53333333333333333
40
0.59999999999999998
40
0.66666666666666663
40
0.73333333333333328
40
0.79999999999999993
40
0.86666666666666659
40
0.93333333333333324
40
1
40
1
40
1
40
1
40
1
40
1
41
1
41
1
41
1
41
1
41
1
41
1
41
1
41
1
41
1
41
1
41
1
41
1
41
1
41
1
41
1
41
1
41
1
41
1
41
1
41
1
10
-24.999999999999961
20
-9.3269662812692982
30
0
10
-23.120202631662448
20
-9.3222895387468512
30
0
10
-19.699335471550036
20
-9.379181807418723
30
0
10
-15.584313505162559
20
-9.6633123603259214
30
0
10
-11.941291241363787
20
-10.388445507613898
30
0
10
-9.4284979052699018
20
-11.594468820359552
30
0
10
-7.7002893660510328
20
-12.760502937951442
30
0
10
-5.6582586097892111
20
-13.598895767082881
30
0
10
-2.6186436878939139
20
-13.925397095413503
30
0
10
1.1281118670180985
20
-13.860506739382297
30
0
10
4.4177631372397181
20
-13.693218977955981
30
0
10
7.1392454508947454
20
-13.083576716959904
30
0
10
9.3326293492694372
20
-11.734330467910709
30
0
10
11.23193968710671
20
-9.427440271538007
30
0
10
12.692983078659344
20
-6.7722701684167905
30
0
10
13.518890804427633
20
-4.4505656927793504
30
0
10
13.798063377314346
20
-2.8055549062274721
30
0
10
13.867671106183634
20
-1.6188821387535501
30
0
10
13.868468638215033
20
-0.82476988431270148
30
0
10
13.857362993884959
20
-0.42716651231803382
30
0
0
ENDSEC
0
SECTION
2
OBJECTS
0
DICTIONARY
5
C
100
AcDbDictionary
3
ACAD_GROUP
350
D
3
ACAD_MLINESTYLE
350
17
0
DICTIONARY
5
D
100
AcDbDictionary
0
DICTIONARY
5
1A
330
C
100
AcDbDictionary
0
DICTIONARY
5
17
100
AcDbDictionary
0
ENDSEC
0
EOF
