0
SECTION
2
HEADER
9
$INSUNITS
70
4
9
$ACADVER
1
AC1014
9
$HANDSEED
5
FFFF
0
ENDSEC
0
SECTION
2
TABLES
0
TABLE
2
VPORT
5
8
100
AcDbSymbolTable
0
ENDTAB
0
TABLE
2
LTYPE
5
5
100
AcDbSymbolTable
0
LTYPE
5
14
100
AcDbSymbolTableRecord
100
AcDbLinetypeTableRecord
2
BYBLOCK
70
0
0
LTYPE
5
15
100
AcDbSymbolTableRecord
100
AcDbLinetypeTableRecord
2
BYLAYER
70
0
0
ENDTAB
0
TABLE
2
LAYER
5
2
100
AcDbSymbolTable
70
2
0
LAYER
5
50
100
AcDbSymbolTableRecord
100
AcDbLayerTableRecord
2
0
70
0
6
CONTINUOUS
0
ENDTAB
0
TABLE
2
STYLE
5
3
100
AcDbSymbolTable
70
1
0
STYLE
5
11
100
AcDbSymbolTableRecord
100
AcDbTextStyleTableRecord
2
STANDARD
70
0
0
ENDTAB
0
TABLE
2
VIEW
5
6
100
AcDbSymbolTable
70
0
0
ENDTAB
0
TABLE
2
UCS
5
7
100
AcDbSymbolTable
70
0
0
ENDTAB
0
TABLE
2
APPID
5
9
100
AcDbSymbolTable
70
2
0
APPID
5
12
100
AcDbSymbolTableRecord
100
AcDbRegAppTableRecord
2
ACAD
70
0
0
ENDTAB
0
TABLE
2
DIMSTYLE
5
A
100
AcDbSymbolTable
70
1
0
ENDTAB
0
TABLE
2
BLOCK_RECORD
5
1
100
AcDbSymbolTable
70
1
0
BLOCK_RECORD
5
1F
100
AcDbSymbolTableRecord
100
AcDbBlockTableRecord
2
*MODEL_SPACE
0
BLOCK_RECORD
5
1B
100
AcDbSymbolTableRecord
100
AcDbBlockTableRecord
2
*PAPER_SPACE
0
ENDTAB
0
ENDSEC
0
SECTION
2
BLOCKS
0
BLOCK
5
20
100
AcDbEntity
100
AcDbBlockBegin
2
*MODEL_SPACE
0
ENDBLK
5
21
100
AcDbEntity
100
AcDbBlockEnd
0
BLOCK
5
1C
100
AcDbEntity
100
AcDbBlockBegin
2
*PAPER_SPACE
0
ENDBLK
5
1D
100
AcDbEntity
100
AcDbBlockEnd
0
ENDSEC
0
SECTION
2
ENTITIES
0
CIRCLE
5
100
100
AcDbEntity
8
0
100
AcDbCircle
10
5.5499999999999705
20
-0.42716651231820668
30
-1.1102230246251565e-15
40
3.0499999999999843
210
-1.4791141972893969e-31
220
-7.8886090522101181e-31
230
1
0
CIRCLE
5
101
100
AcDbEntity
8
0
100
AcDbCircle
10
-55.549999999999585
20
-0.42716651231803637
30
-2.2204460492503131e-15
40
3.0499999999999812
210
-1.4791141972893969e-31
220
1.1653602745177546e-61
230
1
0
SPLINE
5
102
100
AcDbEntity
8
0
100
AcDbSpline
70
0
71
3
72
14
73
10
74
0
42
0.000000001
43
0.0000000001
44
0.0000000001
40
0
40
0
40
0
40
0
40
0.21485446036281025
40
0.21485446036281025
40
0.42970892072562061
40
0.42970892072562061
40
0.62277977393992312
40
0.62277977393992312
40
0.81585062715422574
40
0.81585062715422574
40
0.81585062715422574
40
0.81585062715422574
10
12.549999999999955
20
4.5900341713394237
30
-2.2204460492503131e-15
10
12.549999999999963
20
5.3062157058821224
30
1.1102230246251565e-15
10
12.410113820794519
20
6.0155501546054975
30
-1.1102230246251565e-15
10
11.866316651110091
20
7.3406722621574598
30
0
10
11.467604657965653
20
7.9437910313904991
30
-2.2204460492503131e-15
10
10.512444916178346
20
8.9115682644076966
30
1.1102230246251565e-15
10
9.9834605792710143
20
9.2867341559013177
30
-2.2204460492503131e-15
10
8.819915638766922
20
9.8370886161464419
30
0
10
8.1943336607597494
20
10.008030312716148
30
0
10
7.5534662000682218
20
10.066942221086899
30
0
0
LINE
5
103
100
AcDbEntity
8
0
100
AcDbLine
10
12.549999999999955
20
4.5900341713394237
30
-2.2204460492503131e-15
11
12.549999999999955
21
-4.3618483622216573
31
-2.2204460492503131e-15
0
SPLINE
5
104
100
AcDbEntity
8
0
100
AcDbSpline
70
0
71
3
72
16
73
12
74
0
42
0.000000001
43
0.0000000001
44
0.0000000001
40
0
40
0
40
0
40
0
40
0.21485446036281011
40
0.21485446036281011
40
0.42970892072562028
40
0.42970892072562028
40
0.64456338108843048
40
0.64456338108843048
40
0.77998782532402
40
0.77998782532402
40
0.91541226955960942
40
0.91541226955960942
40
0.91541226955960942
40
0.91541226955960942
10
6.5595442037248786
20
-9.8399368164089402
30
-2.2204460492503131e-15
10
7.2728725301758779
20
-9.9038014318274232
30
-2.2204460492503131e-15
10
7.9918552285611399
20
-9.8277265824943836
30
-1.1102230246251565e-15
10
9.3601906088590425
20
-9.4042620046313239
30
1.1102230246251565e-15
10
9.9964612587356338
20
-9.0609208282716995
30
-2.2204460492503131e-15
10
11.101580943987974
20
-8.1496719912642064
30
-3.3306690738754696e-15
10
11.559864432835942
20
-7.5904763661671186
30
-1.1102230246251565e-15
10
12.111253660197923
20
-6.5612770883999696
30
-1.1102230246251565e-15
10
12.274634928397177
20
-6.1386334362746888
30
1.1102230246251565e-15
10
12.494424908798392
20
-5.2629658611422858
30
0
10
12.549999999999955
20
-4.8132631763402891
30
-3.3306690738754696e-15
10
12.549999999999955
20
-4.3618483622216573
30
-1.1102230246251565e-15
0
SPLINE
5
105
100
AcDbEntity
8
0
100
AcDbSpline
70
4
71
2
72
6
73
3
74
0
42
0.000000001
43
0.0000000001
44
0.0000000001
40
0.59989468638713905
40
0.59989468638713905
40
0.59989468638713905
40
6.9207502327670394
40
6.9207502327670394
40
6.9207502327670394
41
1
41
1
41
1
10
-56.559544203724514
20
-9.8399368164089367
30
-3.3306690738754696e-15
10
-24.999999999999808
20
-7.0143962082274305
30
-1.1102230246251565e-15
10
6.559544203724883
20
-9.8399368164089367
30
-2.2204460492503131e-15
0
SPLINE
5
106
100
AcDbEntity
8
0
100
AcDbSpline
70
0
71
3
72
16
73
12
74
0
42
0.000000001
43
0.0000000001
44
0.0000000001
40
0
40
0
40
0
40
0
40
0.21485446036281025
40
0.21485446036281025
40
0.42970892072562061
40
0.42970892072562061
40
0.64456338108843036
40
0.64456338108843036
40
0.77998782532401945
40
0.77998782532401945
40
0.91541226955960886
40
0.91541226955960886
40
0.91541226955960886
40
0.91541226955960886
10
-62.549999999999571
20
-4.3618483622216573
30
-2.2204460492503131e-15
10
-62.549999999999571
20
-5.0780298967643569
30
0
10
-62.410113820794137
20
-5.7873643454877319
30
-3.3306690738754696e-15
10
-61.866316651109713
20
-7.1124864530396961
30
-3.3306690738754696e-15
10
-61.467604657965268
20
-7.7156052222727336
30
-1.1102230246251565e-15
10
-60.461438460126722
20
-8.7350626976030412
30
0
10
-59.863603752686899
20
-9.1416548345888966
30
-2.2204460492503131e-15
10
-58.789335257567345
20
-9.5990697816565156
30
-3.3306690738754696e-15
10
-58.353806057397506
20
-9.7241114198399696
30
-3.3306690738754696e-15
10
-57.46202756596297
20
-9.8649391864123572
30
1.1102230246251565e-15
10
-57.009160618501298
20
-9.8801911822469251
30
1.1102230246251565e-15
10
-56.559544203724514
20
-9.8399368164089402
30
-3.3306690738754696e-15
0
LINE
5
107
100
AcDbEntity
8
0
100
AcDbLine
10
-62.549999999999571
20
-4.3618483622216573
30
-2.2204460492503131e-15
11
-62.549999999999585
21
4.5955268763455601
31
-2.2204460492503131e-15
0
SPLINE
5
108
100
AcDbEntity
8
0
100
AcDbSpline
70
0
71
3
72
14
73
10
74
0
42
0.000000001
43
0.0000000001
44
0.0000000001
40
0
40
0
40
0
40
0
40
0.21485446036281064
40
0.21485446036281064
40
0.42970892072562078
40
0.42970892072562078
40
0.62254181677557718
40
0.62254181677557718
40
0.8153747128255332
40
0.8153747128255332
40
0.8153747128255332
40
0.8153747128255332
10
-57.55816934417075
20
10.072000551772526
30
-2.2204460492503131e-15
10
-58.271287402488923
20
10.00582936982415
30
-2.2204460492503131e-15
10
-58.964662960227407
20
9.8010030062640769
30
1.1102230246251565e-15
10
-60.233873012528136
20
9.1370980395568395
30
-2.2204460492503131e-15
10
-60.797573167217458
20
8.6843667297475573
30
0
10
-61.672448640243559
20
7.6444824296577698
30
0
10
-61.996848661693491
20
7.0838696413327504
30
-2.2204460492503131e-15
10
-62.437319618790454
20
5.8761317032761031
30
-2.2204460492503131e-15
10
-62.549999999999585
20
5.2383031965120788
30
0
10
-62.549999999999585
20
4.5955268763455592
30
-2.2204460492503131e-15
0
SPLINE
5
109
100
AcDbEntity
8
0
100
AcDbSpline
70
4
71
2
72
6
73
3
74
0
42
0.000000001
43
0.0000000001
44
0.0000000001
40
0.50288365427414872
40
0.50288365427414872
40
0.50288365427414872
40
7.0232461080743462
40
7.0232461080743462
40
7.0232461080743462
41
1
41
1
41
1
10
-57.55816934417075
20
10.07200055177252
30
-2.2204460492503131e-15
10
-25.1823804962144
20
13.076193461475023
30
-3.3306690738754696e-15
10
7.5534662000682218
20
10.066942221086897
30
0
0
ENDSEC
0
SECTION
2
OBJECTS
0
DICTIONARY
5
C
100
AcDbDictionary
3
ACAD_GROUP
350
D
3
ACAD_MLINESTYLE
350
17
0
DICTIONARY
5
D
100
AcDbDictionary
0
DICTIONARY
5
1A
330
C
100
AcDbDictionary
0
DICTIONARY
5
17
100
AcDbDictionary
0
ENDSEC
0
EOF
